<svg width="32" height="32" viewBox="0 0 32 32" fill="none" xmlns="http://www.w3.org/2000/svg">
<path d="M20.4333 22.9968C19.0208 24.2596 17.5138 25.6068 15.9962 27.0928C14.4813 25.6095 12.9774 24.2644 11.5677 23.0036L11.4717 22.9178C9.86361 21.4794 8.38975 20.1571 7.13085 18.8399C4.6154 16.2081 3.0625 13.7026 3.0625 10.5685C3.0625 7.20526 5.79167 4.47663 9.15438 4.47663C10.7248 4.47663 11.8339 4.8639 12.748 5.59517C13.689 6.34789 14.4854 7.51351 15.3255 9.19334L15.9964 10.5349L16.6671 9.19324C17.5068 7.51344 18.3031 6.34783 19.2439 5.59512C20.158 4.86385 21.267 4.47656 22.8375 4.47656C26.2089 4.47656 28.9375 7.20578 28.9375 10.5684C28.9375 13.7023 27.3829 16.2077 24.8654 18.8397C23.6055 20.1569 22.1306 21.4793 20.5218 22.9177L20.4333 22.9968Z" stroke="#FBFBFB" stroke-width="1.5"/>
</svg>
