<svg width="96" height="95" viewBox="0 0 96 95" fill="none" xmlns="http://www.w3.org/2000/svg">
<g filter="url(#filter0_dddd_696_6497)">
<path d="M8 33.4999C8 16.5531 21.7381 2.81494 38.6849 2.81494H57.3151C74.2619 2.81494 88 16.5531 88 33.4999C88 50.4467 74.2619 64.1848 57.3151 64.1848H38.6849C21.7381 64.1848 8 50.4467 8 33.4999Z" fill="#FAFAFA"/>
<path d="M32.2324 55.5875C29.0397 55.5875 26.3343 55.033 24.1162 53.9239C21.9317 52.7813 20.1673 50.9665 18.8231 48.4796C17.4788 45.9926 16.5041 42.7159 15.8992 38.6494C15.2943 34.5493 14.9918 29.5418 14.9918 23.627C14.9918 22.2827 15.0086 21.056 15.0422 19.947C15.0758 18.8379 15.1094 17.9137 15.1431 17.1744C17.3275 17.1744 19.2431 17.1912 20.8899 17.2248C22.5703 17.2584 23.9986 17.3088 25.1748 17.376C25.074 20.4343 25.0236 23.2741 25.0236 25.8954C25.0236 31.9448 25.3261 36.7674 25.931 40.3634C26.5359 43.9258 27.5273 46.4799 28.9052 48.0259C30.2831 49.5718 32.1315 50.3448 34.4505 50.3448C36.6013 50.3448 38.2985 49.7062 39.542 48.4291C40.819 47.1185 41.7264 44.9844 42.2642 42.027C42.8355 39.0359 43.1211 35.0366 43.1211 30.0291C43.1211 28.4496 43.0875 26.6852 43.0203 24.736C42.9867 22.7532 42.9027 20.283 42.7683 17.3256L48.7672 17.1239C48.8344 18.0986 48.868 19.2244 48.868 20.5015C48.9016 21.7449 48.9184 23.0388 48.9184 24.3831C48.9184 30.2308 48.6327 35.1543 48.0614 39.1535C47.4901 43.1192 46.5491 46.3119 45.2384 48.7316C43.9613 51.1513 42.2473 52.8989 40.0965 53.9744C37.9792 55.0498 35.3578 55.5875 32.2324 55.5875Z" fill="#F1EC96"/>
<path d="M55.0722 44.8421C53.8426 44.8421 52.9607 44.6558 52.4267 44.2832C51.8926 43.9106 51.6256 43.3145 51.6256 42.4947C51.6256 41.6626 51.8616 39.7685 52.3335 36.8125C52.8055 33.8566 53.0415 31.9128 53.0415 30.9813C53.0415 30.0374 52.9483 29.286 52.762 28.7271C54.24 28.4041 55.569 28.2427 56.7489 28.2427C58.674 28.2427 60.1396 28.7022 61.1456 29.6213C62.164 30.528 62.6733 31.9998 62.6733 34.0367C62.6733 36.0736 62.369 37.8931 61.7604 39.4953C61.1518 41.0975 60.2575 42.3892 59.0776 43.3704C57.9102 44.3515 56.575 44.8421 55.0722 44.8421ZM53.6563 41.6564C53.6563 42.2153 53.706 42.681 53.8053 43.0536C54.327 43.3766 54.979 43.538 55.7615 43.538C56.5564 43.538 57.3016 43.2648 57.9971 42.7183C58.6926 42.1594 59.2267 41.4452 59.5993 40.5758C60.3445 38.837 60.7171 36.9554 60.7171 34.9309C60.7171 32.9064 60.4128 31.4781 59.8042 30.646C59.1956 29.8014 58.1213 29.3791 56.5812 29.3791C56.1092 29.3791 55.6373 29.4226 55.1653 29.5095C55.1653 30.143 54.9107 32.006 54.4015 35.0986C53.9047 38.1788 53.6563 40.3647 53.6563 41.6564ZM75.1456 35.5643C75.1456 33.6144 74.7792 32.124 74.0464 31.0931C73.326 30.0622 72.3324 29.5468 71.0655 29.5468C70.4197 29.5468 69.8422 29.7579 69.3329 30.1802C68.8237 30.5901 68.4201 31.0993 68.122 31.7079C67.8239 32.3041 67.5755 32.9872 67.3768 33.7572C67.0414 35.0365 66.8738 36.3033 66.8738 37.5578C66.8738 39.5077 67.234 40.9981 67.9543 42.029C68.6871 43.0599 69.6869 43.5753 70.9538 43.5753C71.5996 43.5753 72.1771 43.3704 72.6864 42.9605C73.1956 42.5382 73.5992 42.029 73.8973 41.4328C74.1954 40.8242 74.4438 40.1411 74.6425 39.3835C74.9779 38.0918 75.1456 36.8188 75.1456 35.5643ZM69.8173 45.0284C68.2648 45.0284 67.0477 44.4012 66.1658 43.1468C65.2964 41.8924 64.8617 40.3026 64.8617 38.3775C64.8617 35.8935 65.4703 33.5957 66.6875 31.4843C67.2712 30.4783 68.0413 29.6586 68.9976 29.0252C69.9664 28.3917 71.0345 28.075 72.202 28.075C73.7545 28.075 74.9655 28.7084 75.8349 29.9753C76.7167 31.2297 77.1576 32.8195 77.1576 34.7446C77.1576 36.7442 76.7602 38.6197 75.9653 40.3709C75.0959 42.3084 73.9284 43.656 72.4628 44.4136C71.6431 44.8235 70.7613 45.0284 69.8173 45.0284Z" fill="#1F1E1E"/>
<path d="M66.2572 50.58C67.9934 50.671 69.8139 50.7664 70.7031 50.813M80.8521 44.1089C80.1037 45.1294 77.8138 47.4125 77.0654 48.4329M77.0654 48.4329C78.7389 50.2259 78.5904 53.1391 76.7435 54.7476C75.7963 55.5725 74.9576 55.9472 73.7183 55.795C71.4841 55.5207 70.6009 52.8194 70.7031 50.813M77.0654 48.4329C76.8232 48.5982 76.4507 48.8323 76.4507 48.8323C75.8338 49.2729 75.4884 49.2989 74.6176 49.8122C73.938 50.2127 73.2547 50.4651 72.6277 50.6172C71.8676 50.8016 71.1904 50.8385 70.7031 50.813" stroke="#E78E8E" stroke-width="1.09589" stroke-linecap="round"/>
<path d="M76.0569 52.3024C76.3698 51.507 75.7067 50.1164 75.7067 50.1164L72.8617 51.593C72.8617 51.593 72.9997 52.3495 73.267 52.6981C73.5343 53.0467 73.773 53.1638 74.1602 53.2868C74.5066 53.3967 75.081 53.335 75.081 53.335C75.081 53.335 75.8422 52.848 76.0569 52.3024Z" fill="#E78E8E" stroke="#E78E8E" stroke-width="1.09589"/>
</g>
<defs>
<filter id="filter0_dddd_696_6497" x="0.328767" y="0.623348" width="95.3425" height="94.2466" filterUnits="userSpaceOnUse" color-interpolation-filters="sRGB">
<feFlood flood-opacity="0" result="BackgroundImageFix"/>
<feColorMatrix in="SourceAlpha" type="matrix" values="0 0 0 0 0 0 0 0 0 0 0 0 0 0 0 0 0 0 127 0" result="hardAlpha"/>
<feOffset dy="1.09589"/>
<feGaussianBlur stdDeviation="1.09589"/>
<feColorMatrix type="matrix" values="0 0 0 0 0 0 0 0 0 0 0 0 0 0 0 0 0 0 0.1 0"/>
<feBlend mode="normal" in2="BackgroundImageFix" result="effect1_dropShadow_696_6497"/>
<feColorMatrix in="SourceAlpha" type="matrix" values="0 0 0 0 0 0 0 0 0 0 0 0 0 0 0 0 0 0 127 0" result="hardAlpha"/>
<feOffset dy="4.38356"/>
<feGaussianBlur stdDeviation="2.19178"/>
<feColorMatrix type="matrix" values="0 0 0 0 0 0 0 0 0 0 0 0 0 0 0 0 0 0 0.09 0"/>
<feBlend mode="normal" in2="effect1_dropShadow_696_6497" result="effect2_dropShadow_696_6497"/>
<feColorMatrix in="SourceAlpha" type="matrix" values="0 0 0 0 0 0 0 0 0 0 0 0 0 0 0 0 0 0 127 0" result="hardAlpha"/>
<feOffset dy="10.9589"/>
<feGaussianBlur stdDeviation="3.28767"/>
<feColorMatrix type="matrix" values="0 0 0 0 0 0 0 0 0 0 0 0 0 0 0 0 0 0 0.05 0"/>
<feBlend mode="normal" in2="effect2_dropShadow_696_6497" result="effect3_dropShadow_696_6497"/>
<feColorMatrix in="SourceAlpha" type="matrix" values="0 0 0 0 0 0 0 0 0 0 0 0 0 0 0 0 0 0 127 0" result="hardAlpha"/>
<feOffset dy="19.726"/>
<feGaussianBlur stdDeviation="3.83562"/>
<feColorMatrix type="matrix" values="0 0 0 0 0 0 0 0 0 0 0 0 0 0 0 0 0 0 0.01 0"/>
<feBlend mode="normal" in2="effect3_dropShadow_696_6497" result="effect4_dropShadow_696_6497"/>
<feBlend mode="normal" in="SourceGraphic" in2="effect4_dropShadow_696_6497" result="shape"/>
</filter>
</defs>
</svg>
